<?xml version="1.0" encoding="UTF-8"?>
<svg width="137px" height="38px" viewBox="0 0 137 38" version="1.1" xmlns="http://www.w3.org/2000/svg" xmlns:xlink="http://www.w3.org/1999/xlink">
    <title>future_fables_full_icon</title>
    <g id="future_fables_full_icon" stroke="none" stroke-width="1" fill="none" fill-rule="evenodd">
        <g id="Future-Fables-Icon" transform="translate(1.000000, 1.000000)">
            <rect id="Rectangle" fill="#DB0309" x="0" y="0" width="36" height="36" rx="18"></rect>
            <g id="Group" transform="translate(2.040000, 2.280000)">
                <circle id="Oval" fill="#FFFFFF" cx="15.96" cy="15.96" r="15.96"></circle>
                <path d="M0,18.48 C5.96305871,20.2248335 11.2830587,23.4633787 15.96,28.1956356 C20.8901897,23.6891332 26.2101897,20.450588 31.92,18.48 C31.92,19.5225589 28.8072311,31.92 15.96,31.92 C3.11276888,31.92 0,19.5225589 0,18.48 Z" id="Path" fill="#DB0309"></path>
                <polygon id="Triangle" fill="#E2870B" transform="translate(15.960000, 18.540000) scale(1, -1) translate(-15.960000, -18.540000) " points="15.96 7.8 25.9044444 29.28 6.01555556 29.28"></polygon>
            </g>
        </g>
        <path d="M49.2766448,24 L49.2766448,19.7940381 L53.4179761,19.7940381 L53.4179761,18.0191818 L49.2766448,18.0191818 L49.2766448,15.5930478 L53.8654189,15.5930478 L53.8654189,13.8181915 L47.123948,13.8181915 L47.123948,24 L49.2766448,24 Z M57.3703376,24.0994317 C58.518774,24.0994317 59.3440573,23.507813 59.6870968,22.6129275 L59.7666422,22.6129275 L59.7666422,24 L61.8000209,24 L61.8000209,16.3636436 L59.6821252,16.3636436 L59.6821252,20.7485826 C59.6870968,21.7727294 58.9861031,22.3096607 58.2254505,22.3096607 C57.4250251,22.3096607 56.9079801,21.7478715 56.9030085,20.8480144 L56.9030085,16.3636436 L54.7851128,16.3636436 L54.7851128,21.2258549 C54.7900844,23.0106544 55.8341175,24.0994317 57.3703376,24.0994317 Z M66.5329224,24.1044033 C67.0797969,24.084517 67.4675806,23.9751421 67.6813588,23.9055399 L67.3482625,22.329547 C67.2438592,22.3494334 67.0201379,22.3991493 66.8212744,22.3991493 C66.3986896,22.3991493 66.105366,22.2400585 66.105366,21.6534113 L66.105366,17.9545512 L67.5421544,17.9545512 L67.5421544,16.3636436 L66.105366,16.3636436 L66.105366,14.5340999 L63.9874703,14.5340999 L63.9874703,16.3636436 L62.9434372,16.3636436 L62.9434372,17.9545512 L63.9874703,17.9545512 L63.9874703,21.9318202 C63.9775271,23.4282676 64.9967023,24.1690339 66.5329224,24.1044033 Z M71.4945138,24.0994317 C72.6429502,24.0994317 73.4682335,23.507813 73.8112729,22.6129275 L73.8908183,22.6129275 L73.8908183,24 L75.924197,24 L75.924197,16.3636436 L73.8063013,16.3636436 L73.8063013,20.7485826 C73.8112729,21.7727294 73.1102793,22.3096607 72.3496266,22.3096607 C71.5492012,22.3096607 71.0321563,21.7478715 71.0271847,20.8480144 L71.0271847,16.3636436 L68.909289,16.3636436 L68.909289,21.2258549 C68.9142606,23.0106544 69.9582936,24.0994317 71.4945138,24.0994317 Z M79.7224404,24 L79.7224404,19.6796916 C79.7224404,18.7400618 80.4085192,18.0937556 81.3431774,18.0937556 C81.636501,18.0937556 82.0391995,18.1434715 82.238063,18.2081021 L82.238063,16.3288425 C82.0491427,16.2840983 81.7856486,16.2542688 81.5718704,16.2542688 C80.7167576,16.2542688 80.0157639,16.7514274 79.7373551,17.6960287 L79.6578097,17.6960287 L79.6578097,16.3636436 L77.6045446,16.3636436 L77.6045446,24 L79.7224404,24 Z M86.4390016,24.1491476 C88.3282043,24.1491476 89.6009304,23.2294041 89.8992255,21.8125021 L87.9404206,21.6832408 C87.7266424,22.2649164 87.1797679,22.5681832 86.4738027,22.5681832 C85.4148548,22.5681832 84.7436907,21.8671895 84.7436907,20.7286963 L84.7436907,20.7237247 L89.9439698,20.7237247 L89.9439698,20.1420491 C89.9439698,17.5468812 88.3729486,16.2642119 86.3544846,16.2642119 C84.1073276,16.2642119 82.6506529,17.8600911 82.6506529,20.2166229 C82.6506529,22.6377854 84.0874413,24.1491476 86.4390016,24.1491476 Z M87.9503638,19.411226 L84.7436907,19.411226 C84.7884349,18.5411984 85.4496559,17.8451763 86.3892857,17.8451763 C87.3090291,17.8451763 87.9453922,18.5014257 87.9503638,19.411226 Z M93.989316,24 L93.989316,19.3217374 L98.4886015,19.3217374 L98.4886015,18.4865109 L93.989316,18.4865109 L93.989316,14.653418 L98.950959,14.653418 L98.950959,13.8181915 L93.0596294,13.8181915 L93.0596294,24 L93.989316,24 Z M103.206588,24.1740055 C104.479314,24.1740055 105.254881,23.4680403 105.573063,22.7919046 L105.62775,22.7919046 L105.62775,24 L106.512693,24 L106.512693,18.8146356 C106.512693,16.7663421 104.971501,16.2592403 103.803178,16.2592403 C102.634855,16.2592403 101.431731,16.7215979 100.914687,17.969466 L101.754885,18.2727327 C102.033293,17.6164834 102.724344,17.0546941 103.828036,17.0546941 C104.986416,17.0546941 105.62775,17.6910572 105.62775,18.7350902 L105.62775,18.9140674 C105.62775,19.4907713 104.911842,19.5007145 103.629173,19.6598053 C101.904032,19.8735835 100.695937,20.3558273 100.695937,21.8671895 C100.695937,23.338779 101.819515,24.1740055 103.206588,24.1740055 Z M103.325906,23.363637 C102.326617,23.363637 101.580879,22.8316773 101.580879,21.9069622 C101.580879,20.9822472 102.33656,20.5944635 103.629173,20.4353727 C104.255592,20.3607989 105.369228,20.2215945 105.62775,19.9680436 L105.62775,21.0717357 C105.62775,22.3245755 104.737836,23.363637 103.325906,23.363637 Z M112.354257,24.1590908 C114.228545,24.1590908 115.496299,22.5731548 115.496299,20.2017082 C115.496299,17.8501479 114.223573,16.2592403 112.339342,16.2592403 C110.942326,16.2592403 110.310935,17.1342395 110.007668,17.8203184 L109.928123,17.8203184 L109.928123,13.8181915 L109.038209,13.8181915 L109.038209,24 L109.898293,24 L109.898293,22.5830979 L110.007668,22.5830979 C110.315907,23.2840916 110.962213,24.1590908 112.354257,24.1590908 Z M112.244882,23.3487222 C110.763349,23.3487222 109.913208,22.0312519 109.913208,20.1867934 C109.913208,18.3572497 110.753406,17.0646373 112.244882,17.0646373 C113.776131,17.0646373 114.606385,18.4268519 114.606385,20.1867934 C114.606385,21.9666213 113.766187,23.3487222 112.244882,23.3487222 Z M118.31514,24 L118.31514,13.8181915 L117.430198,13.8181915 L117.430198,24 L118.31514,24 Z M123.729144,24.1590908 C125.260392,24.1590908 126.289511,23.3288359 126.637522,22.3693197 L125.797324,22.0958825 C125.504,22.7819614 124.812949,23.3487222 123.729144,23.3487222 C122.168066,23.3487222 121.17872,22.210229 121.138947,20.4453159 L126.826442,20.4453159 L126.826442,20.0078163 C126.826442,17.4573926 125.250449,16.2592403 123.594911,16.2592403 C121.61622,16.2592403 120.249033,17.9147785 120.249033,20.2265661 C120.249033,22.5433253 121.591362,24.1590908 123.729144,24.1590908 Z M125.921613,19.6647769 L121.143919,19.6647769 C121.238379,18.2429032 122.197895,17.0646373 123.594911,17.0646373 C124.962097,17.0646373 125.921613,18.1931874 125.921613,19.6647769 Z M131.166588,24.1590908 C132.846984,24.1590908 134.000392,23.2343757 134.000392,21.9367917 C134.000392,20.9176166 133.359057,20.2365093 132.081359,19.9232993 L130.927951,19.6399189 C129.978378,19.4012828 129.535907,19.0184707 129.535907,18.3572497 C129.535907,17.5816823 130.276674,17.0397794 131.305792,17.0397794 C132.33491,17.0397794 132.842012,17.5816823 133.080648,18.2677611 L133.891017,18.0390682 C133.518148,16.9353761 132.702808,16.2592403 131.305792,16.2592403 C129.7646,16.2592403 128.645993,17.1392111 128.645993,18.3970224 C128.645993,19.4211691 129.267442,20.1171912 130.594855,20.4353727 L131.842723,20.7336679 C132.682921,20.9325313 133.08562,21.3650593 133.08562,21.9765644 C133.08562,22.7720182 132.324967,23.363637 131.151673,23.363637 C130.10764,23.363637 129.456362,22.8913363 129.242584,21.9865076 L128.392442,22.1953142 C128.660908,23.4680403 129.67014,24.1590908 131.166588,24.1590908 Z" id="FutureFables" fill="#292929" fill-rule="nonzero"></path>
    </g>
</svg>