<?xml version="1.0" encoding="UTF-8"?>
<svg width="288px" height="40px" viewBox="0 0 288 40" version="1.1" xmlns="http://www.w3.org/2000/svg" xmlns:xlink="http://www.w3.org/1999/xlink">
    <title>icon_footer</title>
    <g id="icon_footer" stroke="none" stroke-width="1" fill="none" fill-rule="evenodd">
        <g id="Future-Fables-Icon" transform="translate(1.000000, 2.000000)">
            <rect id="Rectangle" fill="#DB0309" x="0" y="0" width="36" height="36" rx="18"></rect>
            <g id="Group" transform="translate(2.040000, 2.280000)">
                <circle id="Oval" fill="#FFFFFF" cx="15.96" cy="15.96" r="15.96"></circle>
                <path d="M0,18.48 C5.96305871,20.2248335 11.2830587,23.4633787 15.96,28.1956356 C20.8901897,23.6891332 26.2101897,20.450588 31.92,18.48 C31.92,19.5225589 28.8072311,31.92 15.96,31.92 C3.11276888,31.92 0,19.5225589 0,18.48 Z" id="Path" fill="#DB0309"></path>
                <polygon id="Triangle" fill="#E2870B" transform="translate(15.960000, 18.540000) scale(1, -1) translate(-15.960000, -18.540000) " points="15.96 7.8 25.9044444 29.28 6.01555556 29.28"></polygon>
            </g>
        </g>
        <path d="M49.2766448,17 L49.2766448,12.7940381 L53.4179761,12.7940381 L53.4179761,11.0191818 L49.2766448,11.0191818 L49.2766448,8.59304779 L53.8654189,8.59304779 L53.8654189,6.81819153 L47.123948,6.81819153 L47.123948,17 L49.2766448,17 Z M57.3703376,17.0994317 C58.518774,17.0994317 59.3440573,16.507813 59.6870968,15.6129275 L59.7666422,15.6129275 L59.7666422,17 L61.8000209,17 L61.8000209,9.36364365 L59.6821252,9.36364365 L59.6821252,13.7485826 C59.6870968,14.7727294 58.9861031,15.3096607 58.2254505,15.3096607 C57.4250251,15.3096607 56.9079801,14.7478715 56.9030085,13.8480144 L56.9030085,9.36364365 L54.7851128,9.36364365 L54.7851128,14.2258549 C54.7900844,16.0106544 55.8341175,17.0994317 57.3703376,17.0994317 Z M66.5329224,17.1044033 C67.0797969,17.084517 67.4675806,16.9751421 67.6813588,16.9055399 L67.3482625,15.329547 C67.2438592,15.3494334 67.0201379,15.3991493 66.8212744,15.3991493 C66.3986896,15.3991493 66.105366,15.2400585 66.105366,14.6534113 L66.105366,10.9545512 L67.5421544,10.9545512 L67.5421544,9.36364365 L66.105366,9.36364365 L66.105366,7.53409994 L63.9874703,7.53409994 L63.9874703,9.36364365 L62.9434372,9.36364365 L62.9434372,10.9545512 L63.9874703,10.9545512 L63.9874703,14.9318202 C63.9775271,16.4282676 64.9967023,17.1690339 66.5329224,17.1044033 Z M71.4945138,17.0994317 C72.6429502,17.0994317 73.4682335,16.507813 73.8112729,15.6129275 L73.8908183,15.6129275 L73.8908183,17 L75.924197,17 L75.924197,9.36364365 L73.8063013,9.36364365 L73.8063013,13.7485826 C73.8112729,14.7727294 73.1102793,15.3096607 72.3496266,15.3096607 C71.5492012,15.3096607 71.0321563,14.7478715 71.0271847,13.8480144 L71.0271847,9.36364365 L68.909289,9.36364365 L68.909289,14.2258549 C68.9142606,16.0106544 69.9582936,17.0994317 71.4945138,17.0994317 Z M79.7224404,17 L79.7224404,12.6796916 C79.7224404,11.7400618 80.4085192,11.0937556 81.3431774,11.0937556 C81.636501,11.0937556 82.0391995,11.1434715 82.238063,11.2081021 L82.238063,9.32884254 C82.0491427,9.28409827 81.7856486,9.25426875 81.5718704,9.25426875 C80.7167576,9.25426875 80.0157639,9.75142737 79.7373551,10.6960287 L79.6578097,10.6960287 L79.6578097,9.36364365 L77.6045446,9.36364365 L77.6045446,17 L79.7224404,17 Z M86.4390016,17.1491476 C88.3282043,17.1491476 89.6009304,16.2294041 89.8992255,14.8125021 L87.9404206,14.6832408 C87.7266424,15.2649164 87.1797679,15.5681832 86.4738027,15.5681832 C85.4148548,15.5681832 84.7436907,14.8671895 84.7436907,13.7286963 L84.7436907,13.7237247 L89.9439698,13.7237247 L89.9439698,13.1420491 C89.9439698,10.5468812 88.3729486,9.26421192 86.3544846,9.26421192 C84.1073276,9.26421192 82.6506529,10.8600911 82.6506529,13.2166229 C82.6506529,15.6377854 84.0874413,17.1491476 86.4390016,17.1491476 Z M87.9503638,12.411226 L84.7436907,12.411226 C84.7884349,11.5411984 85.4496559,10.8451763 86.3892857,10.8451763 C87.3090291,10.8451763 87.9453922,11.5014257 87.9503638,12.411226 Z M93.989316,17 L93.989316,12.3217374 L98.4886015,12.3217374 L98.4886015,11.4865109 L93.989316,11.4865109 L93.989316,7.653418 L98.950959,7.653418 L98.950959,6.81819153 L93.0596294,6.81819153 L93.0596294,17 L93.989316,17 Z M103.206588,17.1740055 C104.479314,17.1740055 105.254881,16.4680403 105.573063,15.7919046 L105.62775,15.7919046 L105.62775,17 L106.512693,17 L106.512693,11.8146356 C106.512693,9.76634213 104.971501,9.25924034 103.803178,9.25924034 C102.634855,9.25924034 101.431731,9.72159785 100.914687,10.969466 L101.754885,11.2727327 C102.033293,10.6164834 102.724344,10.0546941 103.828036,10.0546941 C104.986416,10.0546941 105.62775,10.6910572 105.62775,11.7350902 L105.62775,11.9140674 C105.62775,12.4907713 104.911842,12.5007145 103.629173,12.6598053 C101.904032,12.8735835 100.695937,13.3558273 100.695937,14.8671895 C100.695937,16.338779 101.819515,17.1740055 103.206588,17.1740055 Z M103.325906,16.363637 C102.326617,16.363637 101.580879,15.8316773 101.580879,14.9069622 C101.580879,13.9822472 102.33656,13.5944635 103.629173,13.4353727 C104.255592,13.3607989 105.369228,13.2215945 105.62775,12.9680436 L105.62775,14.0717357 C105.62775,15.3245755 104.737836,16.363637 103.325906,16.363637 Z M112.354257,17.1590908 C114.228545,17.1590908 115.496299,15.5731548 115.496299,13.2017082 C115.496299,10.8501479 114.223573,9.25924034 112.339342,9.25924034 C110.942326,9.25924034 110.310935,10.1342395 110.007668,10.8203184 L109.928123,10.8203184 L109.928123,6.81819153 L109.038209,6.81819153 L109.038209,17 L109.898293,17 L109.898293,15.5830979 L110.007668,15.5830979 C110.315907,16.2840916 110.962213,17.1590908 112.354257,17.1590908 Z M112.244882,16.3487222 C110.763349,16.3487222 109.913208,15.0312519 109.913208,13.1867934 C109.913208,11.3572497 110.753406,10.0646373 112.244882,10.0646373 C113.776131,10.0646373 114.606385,11.4268519 114.606385,13.1867934 C114.606385,14.9666213 113.766187,16.3487222 112.244882,16.3487222 Z M118.31514,17 L118.31514,6.81819153 L117.430198,6.81819153 L117.430198,17 L118.31514,17 Z M123.729144,17.1590908 C125.260392,17.1590908 126.289511,16.3288359 126.637522,15.3693197 L125.797324,15.0958825 C125.504,15.7819614 124.812949,16.3487222 123.729144,16.3487222 C122.168066,16.3487222 121.17872,15.210229 121.138947,13.4453159 L126.826442,13.4453159 L126.826442,13.0078163 C126.826442,10.4573926 125.250449,9.25924034 123.594911,9.25924034 C121.61622,9.25924034 120.249033,10.9147785 120.249033,13.2265661 C120.249033,15.5433253 121.591362,17.1590908 123.729144,17.1590908 Z M125.921613,12.6647769 L121.143919,12.6647769 C121.238379,11.2429032 122.197895,10.0646373 123.594911,10.0646373 C124.962097,10.0646373 125.921613,11.1931874 125.921613,12.6647769 Z M131.166588,17.1590908 C132.846984,17.1590908 134.000392,16.2343757 134.000392,14.9367917 C134.000392,13.9176166 133.359057,13.2365093 132.081359,12.9232993 L130.927951,12.6399189 C129.978378,12.4012828 129.535907,12.0184707 129.535907,11.3572497 C129.535907,10.5816823 130.276674,10.0397794 131.305792,10.0397794 C132.33491,10.0397794 132.842012,10.5816823 133.080648,11.2677611 L133.891017,11.0390682 C133.518148,9.93537606 132.702808,9.25924034 131.305792,9.25924034 C129.7646,9.25924034 128.645993,10.1392111 128.645993,11.3970224 C128.645993,12.4211691 129.267442,13.1171912 130.594855,13.4353727 L131.842723,13.7336679 C132.682921,13.9325313 133.08562,14.3650593 133.08562,14.9765644 C133.08562,15.7720182 132.324967,16.363637 131.151673,16.363637 C130.10764,16.363637 129.456362,15.8913363 129.242584,14.9865076 L128.392442,15.1953142 C128.660908,16.4680403 129.67014,17.1590908 131.166588,17.1590908 Z" id="FutureFables" fill="#FFFFFF" fill-rule="nonzero"></path>
        <path d="M51.355957,33.2158203 C53.3046875,33.2158203 54.7519531,32.1303711 55.0566406,30.4482422 L53.8950195,30.4482422 C53.6030273,31.5083008 52.6318359,32.1621094 51.355957,32.1621094 C49.5913086,32.1621094 48.4868164,30.7211914 48.4868164,28.4233398 C48.4868164,26.1254883 49.5913086,24.6782227 51.3496094,24.6782227 C52.612793,24.6782227 53.590332,25.4208984 53.8950195,26.6015625 L55.0566406,26.6015625 C54.7836914,24.8369141 53.2792969,23.6245117 51.3496094,23.6245117 C48.8613281,23.6245117 47.3125,25.465332 47.3125,28.4233398 C47.3125,31.375 48.8676758,33.2158203 51.355957,33.2158203 Z M57.7226562,33 L57.7226562,28.7597656 C57.7226562,27.7949219 58.4780273,27.0966797 59.519043,27.0966797 C59.7348633,27.0966797 60.128418,27.1347656 60.2172852,27.1601562 L60.2172852,26.0683594 C60.0776367,26.0493164 59.8491211,26.0366211 59.6713867,26.0366211 C58.7636719,26.0366211 57.9765625,26.5063477 57.7734375,27.1728516 L57.671875,27.1728516 L57.671875,26.1572266 L56.6308594,26.1572266 L56.6308594,33 L57.7226562,33 Z M63.9306641,33.1206055 C65.4287109,33.1206055 66.4951172,32.3969727 66.8125,31.2290039 L65.7207031,31.2290039 C65.4350586,31.8320312 64.8383789,32.1557617 63.9560547,32.1557617 C62.7944336,32.1557617 62.0390625,31.2988281 61.9819336,29.9467773 L61.9819336,29.8959961 L66.9013672,29.8959961 L66.9013672,29.4770508 C66.9013672,27.3505859 65.777832,26.0366211 63.9306641,26.0366211 C62.0517578,26.0366211 60.8457031,27.4331055 60.8457031,29.5849609 C60.8457031,31.7495117 62.0327148,33.1206055 63.9306641,33.1206055 Z M65.7524414,29.0136719 L61.9819336,29.0136719 C62.0644531,27.8012695 62.8261719,27.0014648 63.9179688,27.0014648 C65.003418,27.0014648 65.7270508,27.8012695 65.7524414,29.0136719 Z M70.3164062,33.1206055 C71.2304688,33.1206055 71.9794922,32.7207031 72.4238281,31.9907227 L72.5253906,31.9907227 L72.5253906,33 L73.5664062,33 L73.5664062,28.3154297 C73.5664062,26.8935547 72.6333008,26.0366211 70.9638672,26.0366211 C69.5039062,26.0366211 68.4248047,26.7602539 68.2788086,27.8583984 L69.3833008,27.8583984 C69.5356445,27.3188477 70.1069336,27.0078125 70.9257812,27.0078125 C71.9477539,27.0078125 72.4746094,27.4711914 72.4746094,28.3154297 L72.4746094,28.9375 L70.5004883,29.0581055 C68.9072266,29.1533203 68.0058594,29.8579102 68.0058594,31.0830078 C68.0058594,32.3334961 68.9897461,33.1206055 70.3164062,33.1206055 Z M70.5195312,32.1621094 C69.7260742,32.1621094 69.1357422,31.7558594 69.1357422,31.0576172 C69.1357422,30.3720703 69.5927734,30.0102539 70.6337891,29.9404297 L72.4746094,29.8198242 L72.4746094,30.4482422 C72.4746094,31.4257812 71.6430664,32.1621094 70.5195312,32.1621094 Z M77.8129883,33.0507812 C78.0288086,33.0507812 78.2382812,33.0253906 78.4541016,32.9873047 L78.4541016,32.0668945 C78.2509766,32.0859375 78.1430664,32.0922852 77.9462891,32.0922852 C77.2353516,32.0922852 76.9306641,31.7495117 76.9306641,30.9433594 L76.9306641,27.0712891 L78.4541016,27.0712891 L78.4541016,26.1572266 L76.9306641,26.1572266 L76.9306641,24.3862305 L75.8388672,24.3862305 L75.8388672,26.1572266 L74.734375,26.1572266 L74.734375,27.0712891 L75.8388672,27.0712891 L75.8388672,31.2226562 C75.8388672,32.5302734 76.4038086,33.0507812 77.8129883,33.0507812 Z M82.5483398,33.1206055 C84.0463867,33.1206055 85.112793,32.3969727 85.4301758,31.2290039 L84.3383789,31.2290039 C84.0527344,31.8320312 83.4560547,32.1557617 82.5737305,32.1557617 C81.4121094,32.1557617 80.6567383,31.2988281 80.5996094,29.9467773 L80.5996094,29.8959961 L85.519043,29.8959961 L85.519043,29.4770508 C85.519043,27.3505859 84.3955078,26.0366211 82.5483398,26.0366211 C80.6694336,26.0366211 79.4633789,27.4331055 79.4633789,29.5849609 C79.4633789,31.7495117 80.6503906,33.1206055 82.5483398,33.1206055 Z M84.3701172,29.0136719 L80.5996094,29.0136719 C80.6821289,27.8012695 81.4438477,27.0014648 82.5356445,27.0014648 C83.6210938,27.0014648 84.3447266,27.8012695 84.3701172,29.0136719 Z M89.378418,33.1206055 C90.9335938,33.1206055 92.1206055,32.2763672 92.1206055,31.0512695 C92.1206055,30.0673828 91.4985352,29.5087891 90.2099609,29.1977539 L89.15625,28.9438477 C88.3500977,28.7470703 87.9692383,28.4550781 87.9692383,27.9853516 C87.9692383,27.3759766 88.6040039,26.9633789 89.4165039,26.9633789 C90.2416992,26.9633789 90.7749023,27.3251953 90.9208984,27.8710938 L92,27.8710938 C91.8540039,26.7475586 90.8574219,26.0366211 89.4228516,26.0366211 C87.9692383,26.0366211 86.8710938,26.8935547 86.8710938,28.0297852 C86.8710938,29.0200195 87.4550781,29.5722656 88.7373047,29.8833008 L89.9116211,30.1689453 C90.6416016,30.3466797 90.9970703,30.6640625 90.9970703,31.1337891 C90.9970703,31.762207 90.3369141,32.2001953 89.4165039,32.2001953 C88.5405273,32.2001953 87.9946289,31.8320312 87.8105469,31.2543945 L86.6870117,31.2543945 C86.8076172,32.390625 87.8549805,33.1206055 89.378418,33.1206055 Z M99.8393555,33.1206055 C101.337402,33.1206055 102.403809,32.3969727 102.721191,31.2290039 L101.629395,31.2290039 C101.34375,31.8320312 100.74707,32.1557617 99.8647461,32.1557617 C98.703125,32.1557617 97.9477539,31.2988281 97.890625,29.9467773 L97.890625,29.8959961 L102.810059,29.8959961 L102.810059,29.4770508 C102.810059,27.3505859 101.686523,26.0366211 99.8393555,26.0366211 C97.9604492,26.0366211 96.7543945,27.4331055 96.7543945,29.5849609 C96.7543945,31.7495117 97.9414062,33.1206055 99.8393555,33.1206055 Z M101.661133,29.0136719 L97.890625,29.0136719 C97.9731445,27.8012695 98.7348633,27.0014648 99.8266602,27.0014648 C100.912109,27.0014648 101.635742,27.8012695 101.661133,29.0136719 Z M105.412598,33 L105.412598,28.9501953 C105.412598,27.7504883 106.117188,27.0205078 107.208984,27.0205078 C108.300781,27.0205078 108.821289,27.6044922 108.821289,28.8359375 L108.821289,33 L109.913086,33 L109.913086,28.5693359 C109.913086,26.9443359 109.056152,26.0366211 107.52002,26.0366211 C106.472656,26.0366211 105.806152,26.480957 105.463379,27.2363281 L105.361816,27.2363281 L105.361816,26.1572266 L104.320801,26.1572266 L104.320801,33 L105.412598,33 Z M114.521484,35.6279297 C116.387695,35.6279297 117.568359,34.6503906 117.568359,33.1206055 L117.568359,26.1572266 L116.527344,26.1572266 L116.527344,27.2426758 L116.425781,27.2426758 C116.032227,26.5063477 115.187988,26.0366211 114.229492,26.0366211 C112.471191,26.0366211 111.360352,27.4267578 111.360352,29.4770508 C111.360352,31.5273438 112.458496,32.8984375 114.229492,32.8984375 C115.168945,32.8984375 115.943359,32.4731445 116.375,31.7177734 L116.476562,31.7177734 L116.476562,33.0634766 C116.476562,34.0727539 115.746582,34.6757812 114.521484,34.6757812 C113.537598,34.6757812 112.928223,34.3139648 112.807617,33.7553711 L111.652344,33.7553711 C111.817383,34.8852539 112.871094,35.6279297 114.521484,35.6279297 Z M114.470703,31.9335938 C113.201172,31.9335938 112.490234,30.96875 112.490234,29.4770508 C112.490234,27.9853516 113.201172,27.0205078 114.470703,27.0205078 C115.733887,27.0205078 116.501953,27.9853516 116.501953,29.4770508 C116.501953,30.96875 115.740234,31.9335938 114.470703,31.9335938 Z M121.326172,33.1206055 C122.240234,33.1206055 122.989258,32.7207031 123.433594,31.9907227 L123.535156,31.9907227 L123.535156,33 L124.576172,33 L124.576172,28.3154297 C124.576172,26.8935547 123.643066,26.0366211 121.973633,26.0366211 C120.513672,26.0366211 119.43457,26.7602539 119.288574,27.8583984 L120.393066,27.8583984 C120.54541,27.3188477 121.116699,27.0078125 121.935547,27.0078125 C122.95752,27.0078125 123.484375,27.4711914 123.484375,28.3154297 L123.484375,28.9375 L121.510254,29.0581055 C119.916992,29.1533203 119.015625,29.8579102 119.015625,31.0830078 C119.015625,32.3334961 119.999512,33.1206055 121.326172,33.1206055 Z M121.529297,32.1621094 C120.73584,32.1621094 120.145508,31.7558594 120.145508,31.0576172 C120.145508,30.3720703 120.602539,30.0102539 121.643555,29.9404297 L123.484375,29.8198242 L123.484375,30.4482422 C123.484375,31.4257812 122.652832,32.1621094 121.529297,32.1621094 Z M126.962891,24.8369141 C127.381836,24.8369141 127.724609,24.4941406 127.724609,24.0751953 C127.724609,23.65625 127.381836,23.3134766 126.962891,23.3134766 C126.543945,23.3134766 126.201172,23.65625 126.201172,24.0751953 C126.201172,24.4941406 126.543945,24.8369141 126.962891,24.8369141 Z M127.508789,33 L127.508789,26.1572266 L126.416992,26.1572266 L126.416992,33 L127.508789,33 Z M130.479492,33 L130.479492,28.9501953 C130.479492,27.7504883 131.184082,27.0205078 132.275879,27.0205078 C133.367676,27.0205078 133.888184,27.6044922 133.888184,28.8359375 L133.888184,33 L134.97998,33 L134.97998,28.5693359 C134.97998,26.9443359 134.123047,26.0366211 132.586914,26.0366211 C131.539551,26.0366211 130.873047,26.480957 130.530273,27.2363281 L130.428711,27.2363281 L130.428711,26.1572266 L129.387695,26.1572266 L129.387695,33 L130.479492,33 Z M139.588379,35.6279297 C141.45459,35.6279297 142.635254,34.6503906 142.635254,33.1206055 L142.635254,26.1572266 L141.594238,26.1572266 L141.594238,27.2426758 L141.492676,27.2426758 C141.099121,26.5063477 140.254883,26.0366211 139.296387,26.0366211 C137.538086,26.0366211 136.427246,27.4267578 136.427246,29.4770508 C136.427246,31.5273438 137.525391,32.8984375 139.296387,32.8984375 C140.23584,32.8984375 141.010254,32.4731445 141.441895,31.7177734 L141.543457,31.7177734 L141.543457,33.0634766 C141.543457,34.0727539 140.813477,34.6757812 139.588379,34.6757812 C138.604492,34.6757812 137.995117,34.3139648 137.874512,33.7553711 L136.719238,33.7553711 C136.884277,34.8852539 137.937988,35.6279297 139.588379,35.6279297 Z M139.537598,31.9335938 C138.268066,31.9335938 137.557129,30.96875 137.557129,29.4770508 C137.557129,27.9853516 138.268066,27.0205078 139.537598,27.0205078 C140.800781,27.0205078 141.568848,27.9853516 141.568848,29.4770508 C141.568848,30.96875 140.807129,31.9335938 139.537598,31.9335938 Z M149.046387,33 L149.046387,28.7597656 C149.046387,27.7949219 149.801758,27.0966797 150.842773,27.0966797 C151.058594,27.0966797 151.452148,27.1347656 151.541016,27.1601562 L151.541016,26.0683594 C151.401367,26.0493164 151.172852,26.0366211 150.995117,26.0366211 C150.087402,26.0366211 149.300293,26.5063477 149.097168,27.1728516 L148.995605,27.1728516 L148.995605,26.1572266 L147.95459,26.1572266 L147.95459,33 L149.046387,33 Z M155.254395,33.1206055 C156.752441,33.1206055 157.818848,32.3969727 158.13623,31.2290039 L157.044434,31.2290039 C156.758789,31.8320312 156.162109,32.1557617 155.279785,32.1557617 C154.118164,32.1557617 153.362793,31.2988281 153.305664,29.9467773 L153.305664,29.8959961 L158.225098,29.8959961 L158.225098,29.4770508 C158.225098,27.3505859 157.101562,26.0366211 155.254395,26.0366211 C153.375488,26.0366211 152.169434,27.4331055 152.169434,29.5849609 C152.169434,31.7495117 153.356445,33.1206055 155.254395,33.1206055 Z M157.076172,29.0136719 L153.305664,29.0136719 C153.388184,27.8012695 154.149902,27.0014648 155.241699,27.0014648 C156.327148,27.0014648 157.050781,27.8012695 157.076172,29.0136719 Z M160.827637,33 L160.827637,28.7597656 C160.827637,27.7949219 161.519531,27.0205078 162.414551,27.0205078 C163.277832,27.0205078 163.842773,27.5410156 163.842773,28.3535156 L163.842773,33 L164.93457,33 L164.93457,28.6010742 C164.93457,27.7314453 165.569336,27.0205078 166.521484,27.0205078 C167.486328,27.0205078 167.962402,27.515625 167.962402,28.5249023 L167.962402,33 L169.054199,33 L169.054199,28.2709961 C169.054199,26.8364258 168.273438,26.0366211 166.876953,26.0366211 C165.931152,26.0366211 165.150391,26.5126953 164.782227,27.2363281 L164.680664,27.2363281 C164.363281,26.5253906 163.71582,26.0366211 162.789062,26.0366211 C161.875,26.0366211 161.189453,26.4746094 160.878418,27.2363281 L160.776855,27.2363281 L160.776855,26.1572266 L159.73584,26.1572266 L159.73584,33 L160.827637,33 Z M173.65625,33.1206055 C175.60498,33.1206055 176.811035,31.7749023 176.811035,29.5786133 C176.811035,27.3759766 175.60498,26.0366211 173.65625,26.0366211 C171.70752,26.0366211 170.501465,27.3759766 170.501465,29.5786133 C170.501465,31.7749023 171.70752,33.1206055 173.65625,33.1206055 Z M173.65625,32.1367188 C172.361328,32.1367188 171.631348,31.1972656 171.631348,29.5786133 C171.631348,27.9536133 172.361328,27.0205078 173.65625,27.0205078 C174.951172,27.0205078 175.681152,27.9536133 175.681152,29.5786133 C175.681152,31.1972656 174.951172,32.1367188 173.65625,32.1367188 Z M180.75293,33.0507812 C180.96875,33.0507812 181.178223,33.0253906 181.394043,32.9873047 L181.394043,32.0668945 C181.190918,32.0859375 181.083008,32.0922852 180.88623,32.0922852 C180.175293,32.0922852 179.870605,31.7495117 179.870605,30.9433594 L179.870605,27.0712891 L181.394043,27.0712891 L181.394043,26.1572266 L179.870605,26.1572266 L179.870605,24.3862305 L178.778809,24.3862305 L178.778809,26.1572266 L177.674316,26.1572266 L177.674316,27.0712891 L178.778809,27.0712891 L178.778809,31.2226562 C178.778809,32.5302734 179.34375,33.0507812 180.75293,33.0507812 Z M185.488281,33.1206055 C186.986328,33.1206055 188.052734,32.3969727 188.370117,31.2290039 L187.27832,31.2290039 C186.992676,31.8320312 186.395996,32.1557617 185.513672,32.1557617 C184.352051,32.1557617 183.59668,31.2988281 183.539551,29.9467773 L183.539551,29.8959961 L188.458984,29.8959961 L188.458984,29.4770508 C188.458984,27.3505859 187.335449,26.0366211 185.488281,26.0366211 C183.609375,26.0366211 182.40332,27.4331055 182.40332,29.5849609 C182.40332,31.7495117 183.590332,33.1206055 185.488281,33.1206055 Z M187.310059,29.0136719 L183.539551,29.0136719 C183.62207,27.8012695 184.383789,27.0014648 185.475586,27.0014648 C186.561035,27.0014648 187.284668,27.8012695 187.310059,29.0136719 Z M196.717285,33 C199.44043,33 201.040039,31.3051758 201.040039,28.4169922 C201.040039,25.5351562 199.434082,23.840332 196.717285,23.840332 L193.575195,23.840332 L193.575195,33 L196.717285,33 Z M196.641113,31.9716797 L194.717773,31.9716797 L194.717773,24.8686523 L196.641113,24.8686523 C198.672363,24.8686523 199.87207,26.1889648 199.87207,28.4296875 C199.87207,30.6640625 198.685059,31.9716797 196.641113,31.9716797 Z M203.769531,33 L203.769531,28.9501953 C203.769531,27.7504883 204.474121,27.0205078 205.565918,27.0205078 C206.657715,27.0205078 207.178223,27.6044922 207.178223,28.8359375 L207.178223,33 L208.27002,33 L208.27002,28.5693359 C208.27002,26.9443359 207.413086,26.0366211 205.876953,26.0366211 C204.82959,26.0366211 204.163086,26.480957 203.820312,27.2363281 L203.71875,27.2363281 L203.71875,26.1572266 L202.677734,26.1572266 L202.677734,33 L203.769531,33 Z M213.341797,33 C216.064941,33 217.664551,31.3051758 217.664551,28.4169922 C217.664551,25.5351562 216.058594,23.840332 213.341797,23.840332 L210.199707,23.840332 L210.199707,33 L213.341797,33 Z M213.265625,31.9716797 L211.342285,31.9716797 L211.342285,24.8686523 L213.265625,24.8686523 C215.296875,24.8686523 216.496582,26.1889648 216.496582,28.4296875 C216.496582,30.6640625 215.30957,31.9716797 213.265625,31.9716797 Z M225.567383,33.1206055 C227.211426,33.1206055 228.233398,32.1938477 228.430176,30.9370117 L227.325684,30.9370117 C227.122559,31.7114258 226.481445,32.1367188 225.561035,32.1367188 C224.342285,32.1367188 223.555176,31.1337891 223.555176,29.5532227 C223.555176,28.0043945 224.32959,27.0205078 225.561035,27.0205078 C226.544922,27.0205078 227.147949,27.5727539 227.325684,28.2519531 L228.430176,28.2519531 C228.239746,27.0332031 227.224121,26.0366211 225.561035,26.0366211 C223.644043,26.0366211 222.425293,27.4204102 222.425293,29.5532227 C222.425293,31.7304688 223.650391,33.1206055 225.567383,33.1206055 Z M231.743652,33.1206055 C232.657715,33.1206055 233.406738,32.7207031 233.851074,31.9907227 L233.952637,31.9907227 L233.952637,33 L234.993652,33 L234.993652,28.3154297 C234.993652,26.8935547 234.060547,26.0366211 232.391113,26.0366211 C230.931152,26.0366211 229.852051,26.7602539 229.706055,27.8583984 L230.810547,27.8583984 C230.962891,27.3188477 231.53418,27.0078125 232.353027,27.0078125 C233.375,27.0078125 233.901855,27.4711914 233.901855,28.3154297 L233.901855,28.9375 L231.927734,29.0581055 C230.334473,29.1533203 229.433105,29.8579102 229.433105,31.0830078 C229.433105,32.3334961 230.416992,33.1206055 231.743652,33.1206055 Z M231.946777,32.1621094 C231.15332,32.1621094 230.562988,31.7558594 230.562988,31.0576172 C230.562988,30.3720703 231.02002,30.0102539 232.061035,29.9404297 L233.901855,29.8198242 L233.901855,30.4482422 C233.901855,31.4257812 233.070312,32.1621094 231.946777,32.1621094 Z M237.900879,33 L237.900879,28.7597656 C237.900879,27.7949219 238.592773,27.0205078 239.487793,27.0205078 C240.351074,27.0205078 240.916016,27.5410156 240.916016,28.3535156 L240.916016,33 L242.007812,33 L242.007812,28.6010742 C242.007812,27.7314453 242.642578,27.0205078 243.594727,27.0205078 C244.55957,27.0205078 245.035645,27.515625 245.035645,28.5249023 L245.035645,33 L246.127441,33 L246.127441,28.2709961 C246.127441,26.8364258 245.34668,26.0366211 243.950195,26.0366211 C243.004395,26.0366211 242.223633,26.5126953 241.855469,27.2363281 L241.753906,27.2363281 C241.436523,26.5253906 240.789062,26.0366211 239.862305,26.0366211 C238.948242,26.0366211 238.262695,26.4746094 237.95166,27.2363281 L237.850098,27.2363281 L237.850098,26.1572266 L236.809082,26.1572266 L236.809082,33 L237.900879,33 Z M249.009277,35.2851562 L249.009277,31.9716797 L249.11084,31.9716797 C249.485352,32.6953125 250.272461,33.1206055 251.25,33.1206055 C252.989258,33.1206055 254.125488,31.7177734 254.125488,29.5786133 C254.125488,27.4267578 252.995605,26.0366211 251.25,26.0366211 C250.316895,26.0366211 249.498047,26.5126953 249.060059,27.2998047 L248.958496,27.2998047 L248.958496,26.1572266 L247.91748,26.1572266 L247.91748,35.2851562 L249.009277,35.2851562 Z M250.989746,32.1367188 C249.758301,32.1367188 248.977539,31.1464844 248.977539,29.5786133 C248.977539,28.0043945 249.758301,27.0205078 250.996094,27.0205078 C252.246582,27.0205078 252.995605,27.9790039 252.995605,29.5786133 C252.995605,31.1782227 252.246582,32.1367188 250.989746,32.1367188 Z M257.540527,33.1206055 C258.45459,33.1206055 259.203613,32.7207031 259.647949,31.9907227 L259.749512,31.9907227 L259.749512,33 L260.790527,33 L260.790527,28.3154297 C260.790527,26.8935547 259.857422,26.0366211 258.187988,26.0366211 C256.728027,26.0366211 255.648926,26.7602539 255.50293,27.8583984 L256.607422,27.8583984 C256.759766,27.3188477 257.331055,27.0078125 258.149902,27.0078125 C259.171875,27.0078125 259.69873,27.4711914 259.69873,28.3154297 L259.69873,28.9375 L257.724609,29.0581055 C256.131348,29.1533203 255.22998,29.8579102 255.22998,31.0830078 C255.22998,32.3334961 256.213867,33.1206055 257.540527,33.1206055 Z M257.743652,32.1621094 C256.950195,32.1621094 256.359863,31.7558594 256.359863,31.0576172 C256.359863,30.3720703 256.816895,30.0102539 257.85791,29.9404297 L259.69873,29.8198242 L259.69873,30.4482422 C259.69873,31.4257812 258.867188,32.1621094 257.743652,32.1621094 Z M263.177246,24.8369141 C263.596191,24.8369141 263.938965,24.4941406 263.938965,24.0751953 C263.938965,23.65625 263.596191,23.3134766 263.177246,23.3134766 C262.758301,23.3134766 262.415527,23.65625 262.415527,24.0751953 C262.415527,24.4941406 262.758301,24.8369141 263.177246,24.8369141 Z M263.723145,33 L263.723145,26.1572266 L262.631348,26.1572266 L262.631348,33 L263.723145,33 Z M268.42041,35.6279297 C270.286621,35.6279297 271.467285,34.6503906 271.467285,33.1206055 L271.467285,26.1572266 L270.42627,26.1572266 L270.42627,27.2426758 L270.324707,27.2426758 C269.931152,26.5063477 269.086914,26.0366211 268.128418,26.0366211 C266.370117,26.0366211 265.259277,27.4267578 265.259277,29.4770508 C265.259277,31.5273438 266.357422,32.8984375 268.128418,32.8984375 C269.067871,32.8984375 269.842285,32.4731445 270.273926,31.7177734 L270.375488,31.7177734 L270.375488,33.0634766 C270.375488,34.0727539 269.645508,34.6757812 268.42041,34.6757812 C267.436523,34.6757812 266.827148,34.3139648 266.706543,33.7553711 L265.55127,33.7553711 C265.716309,34.8852539 266.77002,35.6279297 268.42041,35.6279297 Z M268.369629,31.9335938 C267.100098,31.9335938 266.38916,30.96875 266.38916,29.4770508 C266.38916,27.9853516 267.100098,27.0205078 268.369629,27.0205078 C269.632812,27.0205078 270.400879,27.9853516 270.400879,29.4770508 C270.400879,30.96875 269.63916,31.9335938 268.369629,31.9335938 Z M274.412598,33 L274.412598,28.9501953 C274.412598,27.7504883 275.117188,27.0205078 276.208984,27.0205078 C277.300781,27.0205078 277.821289,27.6044922 277.821289,28.8359375 L277.821289,33 L278.913086,33 L278.913086,28.5693359 C278.913086,26.9443359 278.056152,26.0366211 276.52002,26.0366211 C275.472656,26.0366211 274.806152,26.480957 274.463379,27.2363281 L274.361816,27.2363281 L274.361816,26.1572266 L273.320801,26.1572266 L273.320801,33 L274.412598,33 Z M283.051758,33.1206055 C284.606934,33.1206055 285.793945,32.2763672 285.793945,31.0512695 C285.793945,30.0673828 285.171875,29.5087891 283.883301,29.1977539 L282.82959,28.9438477 C282.023438,28.7470703 281.642578,28.4550781 281.642578,27.9853516 C281.642578,27.3759766 282.277344,26.9633789 283.089844,26.9633789 C283.915039,26.9633789 284.448242,27.3251953 284.594238,27.8710938 L285.67334,27.8710938 C285.527344,26.7475586 284.530762,26.0366211 283.096191,26.0366211 C281.642578,26.0366211 280.544434,26.8935547 280.544434,28.0297852 C280.544434,29.0200195 281.128418,29.5722656 282.410645,29.8833008 L283.584961,30.1689453 C284.314941,30.3466797 284.67041,30.6640625 284.67041,31.1337891 C284.67041,31.762207 284.010254,32.2001953 283.089844,32.2001953 C282.213867,32.2001953 281.667969,31.8320312 281.483887,31.2543945 L280.360352,31.2543945 C280.480957,32.390625 281.52832,33.1206055 283.051758,33.1206055 Z" id="CreatesengaingremoteDnDcampaigns" fill="#FFFFFF" fill-rule="nonzero"></path>
    </g>
</svg>