<?xml version="1.0" encoding="UTF-8"?>
<svg width="77px" height="142px" viewBox="0 0 77 142" version="1.1" xmlns="http://www.w3.org/2000/svg" xmlns:xlink="http://www.w3.org/1999/xlink">
    <title>question_mark_scribble</title>
    <g id="question_mark_scribble" stroke="none" stroke-width="1" fill="none" fill-rule="evenodd">
        <path d="M2.3060671,48.9276044 C2.41687249,44.6724952 1.35907785,40.2233643 2.63848326,36.1622769 C6.35622639,24.3614203 21.850431,9.62481816 34.2537441,9.14085729 C51.5067754,8.46766682 69.7036138,9.34231473 71.8470544,31.8204584 C73.2750624,46.7958996 64.595819,59.7658495 50.3172822,65.3343936 C48.0738288,66.209327 45.7102892,66.8276151 43.3226373,67.147401 C38.2468182,67.8272219 29.935512,63.596021 28.0036278,68.3229336 C23.5021746,79.3370392 28.1752223,92.1076445 28.2610195,104" id="Path-76" stroke="#DB0309"></path>
        <path d="M28.6146649,120 C22.3204915,124.889616 21.324877,142.936913 33.6944259,138.221617 C35.6121329,137.490583 47.7549211,128.442705 40.9468282,123.707452 C37.5918905,121.373981 32.8201446,122.944122 28.7577423,123.145078 C22.385475,123.460296 22.6717339,137.496927 28.0803761,137.852612 C30.9648031,138.042299 35.14767,132.407271 33.1391043,130.22907 C30.696929,127.580638 24.0462951,134.324518 29.0839675,134.324518" id="Path-77" stroke="#DB0309"></path>
        <path d="M2.60055596,52.4200009 C2.60055596,48.6968375 1.24930505,44.7203821 2.60055596,41.2505106 C6.9039887,30.1997438 29.8305115,6.48071388 41.2661153,5.21834744 C58.2401517,3.3445982 72.716929,1.00366149 74.6851147,20.319408 C76.4181048,37.326948 71.1799839,54.2161253 54.4325017,61.3608102 C45.4886711,65.1763599 32.3945573,62.7766697 26.8037951,70.7258001 C21.818016,77.8147455 29.0120041,87.9194535 29.6781001,96.5574362 C29.9713528,100.360359 29.6781001,104.185812 29.6781001,108" id="Path-78" stroke="#DB0309"></path>
    </g>
</svg>