<?xml version="1.0" encoding="UTF-8"?>
<svg width="24px" height="24px" viewBox="0 0 24 24" version="1.1" xmlns="http://www.w3.org/2000/svg" xmlns:xlink="http://www.w3.org/1999/xlink">
    <title>scribble_quote_close</title>
    <g id="scribble_quote_close" stroke="none" stroke-width="1" fill="none" fill-rule="evenodd">
        <path d="M20.8269302,4.30994132 C11.2391969,4.30994132 6.78785371,21.5445646 18.0912176,20.5417983 C21.7400563,20.2180954 14.8474459,14.7644089 13.5711243,16.0407086 C10.5920788,19.019703 22.4555624,21.9839002 15.4454007,17.6026806" id="Path-3" stroke="#DB0309" transform="translate(16.113195, 12.446930) scale(-1, -1) translate(-16.113195, -12.446930) "></path>
        <path d="M8.436931,3 C1.19178582,3 -2.07712126,17.1033365 4.72990838,20.2272056 C10.2566351,22.7635206 5.84482601,10.8455179 3.79277014,13.6671255 C-0.238530713,19.2102246 7.96522203,19.4757429 5.04228779,14.6042637 C3.92569305,12.7433023 -2.14895506,25.2316201 5.97942603,17.1033365" id="Path-6" stroke="#DB0309" transform="translate(4.718465, 11.791959) scale(-1, -1) translate(-4.718465, -11.791959) "></path>
    </g>
</svg>