<?xml version="1.0" encoding="UTF-8"?>
<svg width="736px" height="267px" viewBox="0 0 736 267" version="1.1" xmlns="http://www.w3.org/2000/svg" xmlns:xlink="http://www.w3.org/1999/xlink">
    <title>walking_on_arrow_scribble</title>
    <g id="walking_on_arrow_scribble" stroke="none" stroke-width="1" fill="none" fill-rule="evenodd" stroke-linecap="round">
        <path d="M79.9613018,128.457849 C180.773849,128.61062 281.635896,125.75353 382.398942,128.916162 C385.880208,129.025428 386.767652,134.676086 387.370752,138.106454 C388.472535,144.373276 387.978501,150.861423 387.370752,157.195271 C376.114403,274.506857 388.303319,75.6705789 383.727357,231.647659 C383.683778,233.133111 382.61004,228.725444 381.42335,227.830886 C376.37802,224.027581 370.489678,221.460055 365.345791,217.791143 C363.842811,216.719132 359.905905,214.405219 361.612206,213.700453 C370.399424,210.071006 380.117498,209.22465 389.518465,207.806933 C395.12383,206.961614 406.34044,201.264369 406.504717,206.930809 C406.706828,214.10517 394.748354,215.344944 389.884133,220.622511 C386.316503,224.493308 384.314979,229.557203 381.530401,234.02455" id="Path" stroke="#DB0309"></path>
        <g id="Group-8" transform="translate(110.709664, 33.427239)" stroke="#DB0309">
            <path d="M232.488011,42.0986785 C227.40255,47.4152124 229.852906,54.2812966 238.506162,51.6624016 C239.615746,51.3265878 242.537059,47.0311347 240.757509,45.6634276 C238.250041,43.7362651 234.822519,43.4768109 231.855024,42.3835025" id="Path-13"></path>
            <polyline id="Path-14" points="235.496157 52.9949316 235.496157 55.1311872 235.496157 55.6934708 235.496157 56.2557796 235.496157 56.8180632 235.496157 57.380372 235.496157 57.9426557 235.496157 58.7027729 235.496157 59.9273754 235.496157 60.4873718 235.496157 61.0496806 235.496157 61.8084657 235.496157 62.7893391 235.64822 63.5494563 235.788772 64.1117399 235.788772 64.8718571 235.929324 65.4341407 236.058465 65.8215637 236.058465 66.3838474 236.176195 66.619257 236.176195 67.0066549 236.176195 67.3940779 236.305336 67.7814758 236.305336 68.1688736 236.305336 68.4042832 236.305336 68.7917062 236.305336 69.0270153 236.305336 69.4144383 236.305336 69.520531 236.305336 69.7559658 236.305336 69.9913754 236.305336 70.097644 236.305336 70.3330787 236.305336 70.5684884 236.305336 70.803898 236.305336 71.0393327 236.305336 71.4267306 236.305336 71.6621402 236.434226 72.04896 236.434226 72.2843696 236.434226 72.5197792 236.434226 72.755214 236.434226 72.9906236 236.434226 73.0968922 236.434226 73.203186 236.434226 73.3094797 236.434226 73.4157735 236.540545 73.5220672 236.540545 73.6283359"></polyline>
            <path d="M236.246672,75.0526068 C242.515417,82.3304325 243.024017,87.551126 250.180127,82.3188617" id="Path-15"></path>
            <path d="M236.563618,75.5999103 C235.389958,81.7093202 226.709033,86.8644185 231.899311,90.5635269" id="Path-16"></path>
            <path d="M229.709996,68.5257331 C236.667347,63.0468823 232.714683,65.3589052 241.749718,61.9101347" id="Path-17"></path>
            <path d="M243.365312,57.357198 C236.228659,58.4111139 239.824939,62.915766 245.897964,58.3042655" id="Path-18"></path>
            <path d="M238.65526,58.8528258 C237.458817,54.0379863 238.67287,56.1182471 234.90806,52.6745423" id="Path-19"></path>
            <path d="M239.517423,50.9839212 C240.654139,53.1617911 241.790855,55.339661 242.92757,57.5175309" id="Path-20"></path>
            <path d="M240.884991,61.587257 C244.18417,67.0542954 247.757842,65.6056063 243.318763,60.3187445" id="Path-21"></path>
            <path d="M232.929423,42.524331 C201.96279,4.32514913 224.301864,36.6070467 230.915798,44.8122481" id="Path-22"></path>
            <path d="M243.076718,58.2853141 C243.847811,58.5470815 244.618903,58.8088488 245.389996,59.0706161" id="Path-23"></path>
            <path d="M201.656338,63.107592 C196.334023,65.1734135 196.292554,73.5289636 202.65835,71.3753808 C203.275653,71.166544 208.717321,67.1733191 206.997568,65.3961123 C205.281394,63.622605 202.276573,63.9557888 199.916076,63.235627" id="Path-24"></path>
            <path d="M201.80438,73.8126471 C201.381694,83.5536023 200.869621,78.6513709 203.548261,88.4961649" id="Path-25"></path>
            <path d="M200.614765,83.1718257 C199.13689,84.4219481 197.659016,85.6720706 196.181142,86.922193" id="Path-26"></path>
            <path d="M198.133941,79.9651928 C200.734623,78.9988387 203.335305,78.0324848 205.935987,77.0661306" id="Path-27"></path>
            <polyline id="Path-28" points="209.299434 64.8651965 209.299434 68.0447092 209.299434 68.4321071 209.299434 68.819505 209.299434 69.206928 209.299434 69.4423376 209.299434 69.6772445 209.299434 69.7835383 209.299434 70.1709362 209.299434 70.4063458 209.299434 70.5126395 209.299434 70.7480492 209.299434 70.9834839 209.299434 71.0897525 209.299434 71.3251621 209.299434 71.5605969 209.299434 71.7960065 209.063975 72.0314161 209.063975 72.1377099 209.063975 72.3731195 209.063975 72.4794133 208.946446 72.7145464 208.946446 72.820815 208.946446 72.9271088 208.840127 73.0334025 208.840127 73.2688121 208.733858 73.3751059 208.733858 73.4813996 208.616178 73.7168093 208.50986 73.8230779 208.50986 74.0585126 208.39218 74.2939222 208.285861 74.400216 208.168181 74.6356256 208.050451 74.8710352 207.932772 75.1064448 207.815042 75.3418796 207.708773 75.4481734 207.591043 75.683583 207.473364 75.9189926 207.473364 76.1544022 207.355634 76.3898118 207.237954 76.6252466 207.120224 76.8606562 207.002544 77.0960658 206.884814 77.3315006 206.778546 77.4377692 206.649405 77.8251922 206.543136 77.9314608"></polyline>
            <path d="M208.818159,66.5773075 C214.182467,66.5774388 211.539512,82.716974 205.88607,79.0024162" id="Path-29"></path>
            <path d="M205.771306,54.5906198 C204.832349,57.6055186 203.893391,60.6204169 202.954434,63.6353157" id="Path-30"></path>
            <polyline id="Path-31" points="205.739184 55.521752 206.17572 56.8105983 206.29345 57.0460079 206.399719 57.1523017 206.505987 57.2585954 206.612306 57.364864 206.718575 57.4711578 206.836305 57.7065674 206.942372 57.8126601 207.048691 57.9189538 207.15496 58.0252476 207.261228 58.1315413 207.367547 58.2378351 207.473816 58.3441037 207.473816 58.4503975 207.580135 58.5566912 207.697815 58.7921008 207.804083 58.8983946 207.910402 59.0046883 207.910402 59.110957 208.016671 59.2172507 208.12299 59.3235445 208.229258 59.4298131 208.229258 59.5361068 208.335527 59.6424006 208.441846 59.7486943 208.441846 59.8549881 208.548114 59.9612567 208.654383 60.0675504 208.760702 60.1738442 208.760702 60.2801128 208.86697 60.3864066 208.973289 60.3864066 209.079558 60.4927003 209.079558 60.5989941"></polyline>
            <polyline id="Path-33" points="208.554448 60.3544606 210.00129 60.3544606 210.235895 60.3544606 210.471355 60.4721906 210.706765 60.4721906 210.813033 60.5784592 211.048443 60.696164 211.154762 60.696164 211.26098 60.696164 211.367249 60.8024578 211.473517 60.8024578 211.579836 60.8024578 211.686105 60.8024578 211.792424 60.8024578 212.027833 60.9201626 212.134102 60.9201626 212.369512 60.9201626 212.604921 60.9201626 212.71124 61.0264563 212.94665 61.0264563 213.052918 61.0264563 213.159237 61.0264563 213.265506 61.0264563 213.371724 61.0264563 213.477993 61.0264563 213.584312 61.0264563 213.69058 61.0264563 213.791269 61.0264563 213.892058 61.0264563 213.998327 61.0264563 214.099066 61.0264563 214.099066 60.9201626 214.205385 60.9201626 214.205385 60.8138688 214.311654 60.7076002 214.311654 60.6013064"></polyline>
            <path d="M213.346841,61.0900466 C213.182193,58.701424 213.017546,56.3128014 212.852898,53.9241788" id="Path-32"></path>
            <path d="M212.852898,53.9241788 C219.128885,60.6308838 221.515408,66.5989829 213.767643,72.9344983" id="Path-34"></path>
            <path d="M213.767643,72.9344983 C214.041238,67.5558416 214.80384,69.8810015 211.852998,65.8475025" id="Path-35"></path>
            <path d="M211.852998,65.8475025 C210.405369,65.9537963 208.957739,66.06009 207.51011,66.1663838" id="Path-36"></path>
            <path d="M169.100138,13.985351 C168.769639,21.1286159 164.876649,26.3752466 163.657516,33.4631469" id="Path-37"></path>
            <path d="M168.40997,14.7604232 C168.40997,27.9889599 167.437821,20.7458139 172.922691,36.2152477" id="Path-38"></path>
            <path d="M172.922691,36.2152477 C169.965573,36.2152477 148.358045,47.0435094 165.15807,29.9291624" id="Path-39"></path>
            <path d="M168.630299,38.3729178 C145.472247,50.2737809 183.06013,58.6667934 168.460465,37.4015955" id="Path-40"></path>
            <path d="M165.653546,51.5887575 C162.089392,62.6343095 157.588418,73.4203467 154.961083,84.7254136 C154.722303,85.752854 157.19203,84.7540241 158.07864,84.1825589 C159.8878,83.0164631 160.96827,80.9369167 162.738473,79.7124907 C165.101634,78.0779239 168.942967,78.1861395 170.360984,75.6870264 C172.085433,72.6478586 171.672873,68.6422727 170.96092,65.2212516 C170.131968,61.2380427 167.56959,57.8245403 165.873925,54.1261847" id="Path-41"></path>
            <path d="M168.596669,58.2512066 C170.753937,55.6833081 172.911205,53.1154096 175.068473,50.5475111" id="Path-42"></path>
            <path d="M176.209654,40.9233395 C176.61344,49.8123692 177.017225,58.7013988 177.421011,67.5904285" id="Path-43"></path>
            <polyline id="Path-44" points="176.776135 36.7422425 176.776135 34.4988889 176.776135 34.2634793 176.776135 34.1571855 176.776135 34.0508918 176.776135 34.1468552"></polyline>
            <path d="M178.524415,38.5053515 C179.141802,38.2946239 179.759189,38.0838964 180.376575,37.8731688" id="Path-45"></path>
            <path d="M179.307706,41.279445 C180.085761,41.6281776 180.863816,41.9769102 181.641871,42.3256429" id="Path-46"></path>
            <path d="M173.234359,39.7227153 C172.49192,40.1068792 171.749481,40.4910431 171.007041,40.875207" id="Path-47"></path>
            <path d="M166.040416,79.1474422 C166.043449,82.6325569 166.046482,86.1176715 166.049515,89.6027862" id="Path-48"></path>
            <path d="M160.506556,82.5024943 C160.506556,88.0934422 161.374777,85.6507511 158.114481,89.9026909" id="Path-49"></path>
            <path d="M160.128634,63.6016857 C158.230142,62.8816999 156.33165,62.1617141 154.433159,61.4417283" id="Path-50"></path>
            <path d="M116.974803,16.7788986 C114.438256,16.7788986 108.532864,14.3827864 109.365161,16.7788986 L106.46625,13.5445801 C108.703429,19.9852267 111.904894,19.1444582 117.93861,20.9388575" id="Path-51"></path>
            <path d="M119.591203,17.1714993 C125.953829,15.9727299 124.806739,17.9781463 125.599904,13.7170655" id="Path-52"></path>
            <path d="M120.662334,20.9257373 C121.74605,19.1212401 122.829765,17.3167432 123.91348,15.5122461" id="Path-53"></path>
            <path d="M121.329404,15.6185398 C121.329404,1.48318717 104.210772,-8.06371387 97.9151949,9.56902033 C91.7545546,26.8238225 115.427746,44.9847812 118.08899,25.0358294" id="Path-54"></path>
            <path d="M118.189754,25.0358294 C116.097442,25.0003981 113.83208,24.095595 111.912818,24.9295356 C102.796616,28.8906254 121.529863,32.5982457 117.813767,26.6980234" id="Path-55"></path>
            <path d="M103.303878,31.9861689 C98.3441513,50.0963911 95.4134889,49.9121249 98.828356,65.0216838 C99.2086004,66.7041285 99.3254646,69.333314 101.007566,69.7150719 C143.115,79.2714773 132.856364,50.8667769 110.423951,35.6939081" id="Path-56"></path>
            <path d="M114.462636,73.6054383 C121.528355,74.567331 123.705094,80.4442278 125.730151,86.2552996" id="Path-57"></path>
            <path d="M122.579115,74.0770367 C139.785645,81.7386352 122.82435,71.8577111 131.980947,84.373581 C136.510338,90.564665 130.026494,68.0564065 137.906504,82.1627765 C140.009012,85.9265745 125.012556,97.844586 124.070043,86.1587329" id="Path-58"></path>
            <path d="M104.203517,71.9752405 C101.152446,80.695802 76.8449177,84.2747061 102.457977,89.3774304" id="Path-59"></path>
            <path d="M105.490428,88.9411208 C98.4519284,82.003277 102.657989,78.7326046 107.750396,70.8940554" id="Path-60"></path>
            <path d="M99.6280098,42.1348721 C86.4998958,42.4314633 91.444242,52.6401424 80.917218,57.5689058" id="Path-61"></path>
            <path d="M116.309946,38.9744867 C119.057006,37.2808198 128.576168,28.7088723 131.947594,35.744353" id="Path-62"></path>
            <path d="M68.8441681,39.8519065 C70.9584661,30.3216503 69.7830353,31.0996744 72.4050967,42.132786" id="Path-63"></path>
            <path d="M72.5020153,42.132786 C75.4649834,42.132786 86.3921341,55.7334069 83.9378808,57.9480596 C81.0165454,60.5841947 73.2156821,58.4583897 69.6873799,57.74163" id="Path-64"></path>
            <path d="M67.6475402,40.8377817 C52.7147541,79.1619423 53.4667233,54.086619 26.4107172,59.3559679 C13.9990069,61.7732365 8.79278887,67.6774395 0,76.4701417" id="Path-65"></path>
            <path d="M67.3893839,59.3641618 C54.1580568,66.0294018 57.4949149,78.3738733 48.7495719,89.2970754" id="Path-66"></path>
            <polyline id="Path-67" points="48.439915 74.208842 40.1977381 74.208842 38.7063581 74.208842 37.7254847 74.208842 36.5008822 74.208842 36.1134592 74.208842 34.8888566 74.208842 34.1287394 74.208842 31.4069005 74.208842 30.6467833 74.208842 29.8866913 74.208842 29.1265741 74.208842 28.366482 74.208842 26.8462728 74.208842 26.0884679 74.208842 25.3283759 74.208842 24.5682587 74.208842 24.005975 74.208842 23.618552 74.208842 23.2311541 74.208842 22.3729119 74.208842 22.2666433 74.208842 22.1659043 74.208842"></polyline>
            <path d="M22.1659043,74.208842 C14.737391,84.8836152 18.9432326,80.4671395 9.96703111,87.8447041" id="Path-68"></path>
            <path d="M2.72322128,73.9734826 C17.4980786,72.3309963 12.0096295,70.371499 20.1810337,74.9164281" id="Path-69"></path>
            <path d="M44.2252886,57.9385336 C51.9807162,42.8481918 63.1332911,50.0069476 53.6307649,58.3605417 C49.5757456,61.9252764 43.1750527,61.0587122 37.947196,62.4077975" id="Path-70"></path>
            <path d="M51.9173217,48.9660742 C23.8204203,48.9660742 35.2247591,46.5133412 17.0750142,52.2351914" id="Path-71"></path>
            <path d="M17.171053,52.2351914 C17.2949353,59.103528 21.9337881,73.0164675 24.8345837,58.1016313" id="Path-72"></path>
            <path d="M19.7814707,65.7819267 C37.2456514,65.6758697 31.3488601,68.4159243 39.190574,63.8307615" id="Path-73"></path>
            <path d="M45.0380625,43.1369842 C31.6996565,44.0678401 21.8412522,37.8049244 22.5488031,50.9543128 C22.5896918,51.7142052 23.5752118,52.0781093 24.0884161,52.6400075" id="Path-74"></path>
            <path d="M42.3522665,44.242223 C46.3311965,44.242223 42.9519327,48.1120379 40.7906859,48.5518076 C35.5447675,49.6192451 30.1126674,49.3368079 24.7736577,49.7293081" id="Path-75"></path>
        </g>
    </g>
</svg>